<svg width="22" height="22" viewBox="0 0 22 22" fill="none" xmlns="http://www.w3.org/2000/svg">
<path d="M6.74063 6.68807L10.2763 11.7951C10.3218 11.8609 10.3462 11.9389 10.3462 12.0188C10.3462 12.0987 10.3218 12.1768 10.2763 12.2425L6.74063 17.3496C6.68131 17.4352 6.59039 17.4938 6.48786 17.5125C6.38534 17.5311 6.27961 17.5082 6.19394 17.4489C6.10827 17.3896 6.04967 17.2987 6.03104 17.1961C6.01241 17.0936 6.03527 16.9879 6.09459 16.9022L9.47563 12.0188L6.09455 7.13537C6.06518 7.09295 6.04445 7.04516 6.03354 6.99473C6.02264 6.9443 6.02177 6.89221 6.031 6.84145C6.04023 6.79068 6.05936 6.74223 6.08731 6.69886C6.11526 6.65549 6.15148 6.61805 6.1939 6.58868C6.23632 6.55931 6.28411 6.53858 6.33454 6.52767C6.38497 6.51677 6.43706 6.5159 6.48782 6.52513C6.53859 6.53436 6.58704 6.55349 6.63041 6.58144C6.67378 6.60939 6.71126 6.64565 6.74063 6.68807Z" fill="white"/>
<path d="M11.0623 17.3495C11.0029 17.4352 10.912 17.4938 10.8095 17.5124C10.707 17.5311 10.6012 17.5082 10.5156 17.4489C10.4299 17.3896 10.3713 17.2986 10.3527 17.1961C10.334 17.0936 10.3569 16.9879 10.4162 16.9022L13.7973 12.0188L10.4162 7.13537C10.3569 7.0497 10.334 6.94397 10.3526 6.84145C10.3713 6.73892 10.4299 6.648 10.5155 6.58868C10.558 6.55931 10.6057 6.53858 10.6562 6.52767C10.7066 6.51677 10.7587 6.5159 10.8095 6.52513C10.912 6.54376 11.0029 6.60236 11.0622 6.68803L14.5979 11.7951C14.6434 11.8608 14.6678 11.9388 14.6678 12.0188C14.6678 12.0987 14.6434 12.1767 14.5979 12.2424L11.0623 17.3495Z" fill="white"/>
</svg>
