<svg width="51" height="40" viewBox="0 0 51 40" fill="none" xmlns="http://www.w3.org/2000/svg">
<path d="M44.1995 23.6944H40.3336C39.8736 23.6944 39.5003 23.3219 39.5003 22.8611V17.8236C39.5003 17.3627 39.8736 16.9902 40.3336 16.9902C40.7936 16.9902 41.167 17.3627 41.167 17.8236V22.0277H44.1995C44.6595 22.0277 45.0328 22.4002 45.0328 22.8611C45.0328 23.3219 44.6595 23.6944 44.1995 23.6944Z" fill="white"/>
<path d="M50.1042 40.0002H1.77083C1.31083 40.0002 0.9375 39.6277 0.9375 39.1668C0.9375 38.706 1.31083 38.3335 1.77083 38.3335H50.1042C50.5642 38.3335 50.9375 38.706 50.9375 39.1668C50.9375 39.6277 50.5642 40.0002 50.1042 40.0002Z" fill="white"/>
<path d="M50.6942 20.0542L43.7008 13.0508C43.5442 12.8942 43.3325 12.8067 43.1108 12.8067H37.3092V7.78167C37.3092 7.32083 36.9358 6.94833 36.4758 6.94833H30.175C28.2725 2.85417 24.1058 0 19.2708 0C14.4358 0 10.2692 2.85417 8.36667 6.94833H1.77083C1.31083 6.94833 0.9375 7.32083 0.9375 7.78167V30.7892C0.9375 31.25 1.31083 31.6225 1.77083 31.6225H5.32583C5.72333 33.89 7.70833 35.6217 10.095 35.6217C12.4817 35.6217 14.4658 33.8908 14.8642 31.6225H31.7075C32.1158 33.9525 34.2325 35.675 36.5933 35.6192C38.905 35.5642 40.91 33.8108 41.2617 31.5217H50.1042C50.5642 31.5217 50.9375 31.1492 50.9375 30.6883V20.6433C50.9375 20.4233 50.85 20.2108 50.6942 20.0542ZM19.2708 1.66667C24.9742 1.66667 29.6142 6.2625 29.6142 11.9108C29.6142 17.5592 24.9742 22.155 19.2708 22.155C13.5675 22.155 8.9275 17.5592 8.9275 11.9108C8.9275 6.2625 13.5675 1.66667 19.2708 1.66667ZM10.0942 33.955C8.34083 33.955 6.915 32.535 6.915 30.7892C6.915 29.0425 8.34083 27.6225 10.0942 27.6225C11.8475 27.6225 13.2733 29.0425 13.2733 30.7892C13.2742 32.535 11.8475 33.955 10.0942 33.955ZM31.7067 29.9558H14.8633C14.4658 27.6875 12.4808 25.9558 10.0942 25.9558C7.7075 25.9558 5.7225 27.6867 5.325 29.9558H2.60417V8.615H7.73833C5.54083 16.1642 11.4675 23.8217 19.2708 23.8217C27.0742 23.8217 33.0008 16.165 30.8033 8.615H35.6425V13.64V26.0325C33.6392 26.3817 32.0575 27.9583 31.7067 29.9558ZM36.4758 33.955C34.7225 33.955 33.2967 32.535 33.2967 30.7892C33.2967 29.0425 34.7225 27.6225 36.4758 27.6225C38.2292 27.6225 39.655 29.0425 39.655 30.7892C39.655 32.535 38.2292 33.955 36.4758 33.955ZM49.2708 29.855H41.2292C40.8442 27.9042 39.2792 26.375 37.3092 26.0325V14.4733H42.7658L49.2708 20.9892V29.855Z" fill="white"/>
<path d="M22.7258 15.1543C22.5617 15.1543 22.395 15.1051 22.25 15.0043L18.795 12.5943C18.5708 12.4385 18.4375 12.1835 18.4375 11.911V5.46346C18.4375 5.00263 18.8108 4.63013 19.2708 4.63013C19.7308 4.63013 20.1042 5.00263 20.1042 5.46346V11.4768L23.2025 13.6376C23.855 14.0926 23.5183 15.1543 22.7258 15.1543Z" fill="white"/>
</svg>
