<svg width="37" height="48" viewBox="0 0 37 48" fill="none" xmlns="http://www.w3.org/2000/svg">
<path d="M34.1551 48.0096H3.7271C2.19163 48.0096 0.9375 46.7555 0.9375 45.22V2.7896C0.9375 1.24711 2.19163 0 3.7271 0H34.1479C35.6904 0 36.9375 1.25413 36.9375 2.7896V45.2128C36.9445 46.7553 35.6905 48.0096 34.1551 48.0096ZM3.7271 1.41137C2.96525 1.41137 2.34634 2.03021 2.34634 2.79213V45.2153C2.34634 45.9772 2.96519 46.5961 3.7271 46.5961H34.1479C34.9097 46.5961 35.5286 45.9772 35.5286 45.2153V2.78972C35.5286 2.02787 34.9098 1.40896 34.1479 1.40896L3.7271 1.41137Z" fill="white"/>
<path d="M31.2968 13.7907H23.1766C22.7874 13.7907 22.4686 13.4719 22.4686 13.0827C22.4686 12.6936 22.7874 12.3748 23.1766 12.3748H31.2968C31.6859 12.3748 32.0048 12.6936 32.0048 13.0827C32.0001 13.4719 31.686 13.7907 31.2968 13.7907Z" fill="white"/>
<path d="M31.2972 19.6122H6.58421C6.19507 19.6122 5.87625 19.2934 5.87625 18.9043C5.87625 18.5151 6.19507 18.1963 6.58421 18.1963H31.2972C31.6864 18.1963 32.0052 18.5151 32.0052 18.9043C32.0005 19.3004 31.6864 19.6122 31.2972 19.6122Z" fill="white"/>
<path d="M31.2972 25.4399H6.58421C6.19507 25.4399 5.87625 25.121 5.87625 24.7319C5.87625 24.3427 6.19507 24.0239 6.58421 24.0239H31.2972C31.6864 24.0239 32.0052 24.3427 32.0052 24.7319C32.0005 25.121 31.6864 25.4399 31.2972 25.4399Z" fill="white"/>
<path d="M31.2972 31.2675H6.58421C6.19507 31.2675 5.87625 30.9487 5.87625 30.5595C5.87625 30.1704 6.19507 29.8516 6.58421 29.8516H31.2972C31.6864 29.8516 32.0052 30.1704 32.0052 30.5595C32.0052 30.9487 31.6864 31.2675 31.2972 31.2675Z" fill="white"/>
<path d="M31.2972 37.0878H6.58421C6.19507 37.0878 5.87625 36.769 5.87625 36.3798C5.87625 35.9907 6.19507 35.6719 6.58421 35.6719H31.2972C31.6864 35.6719 32.0052 35.9907 32.0052 36.3798C32.0052 36.769 31.6864 37.0878 31.2972 37.0878Z" fill="white"/>
<path d="M31.2972 42.9162H6.58421C6.19507 42.9162 5.87625 42.5974 5.87625 42.2082C5.87625 41.8191 6.19507 41.5002 6.58421 41.5002H31.2972C31.6864 41.5002 32.0052 41.8191 32.0052 42.2082C32.0052 42.5973 31.6864 42.9162 31.2972 42.9162Z" fill="white"/>
<path d="M15.7053 13.7907H8.05375C7.0504 13.7907 6.22992 12.9749 6.22992 11.9669V6.91978C6.22992 5.91643 7.04572 5.09595 8.05375 5.09595H15.7053C16.7086 5.09595 17.5291 5.91175 17.5291 6.91978V11.9669C17.5291 12.9749 16.7133 13.7907 15.7053 13.7907ZM8.05375 6.51187C7.82636 6.51187 7.64585 6.69706 7.64585 6.91977V11.9669C7.64585 12.1943 7.83104 12.3748 8.05375 12.3748H15.7053C15.9327 12.3748 16.1132 12.1896 16.1132 11.9669V6.91977C16.1132 6.69238 15.928 6.51187 15.7053 6.51187H8.05375Z" fill="white"/>
</svg>
