<svg width="41" height="41" viewBox="0 0 41 41" fill="none" xmlns="http://www.w3.org/2000/svg">
<path d="M33.9783 19.3822V0.849594C33.9783 0.677314 33.9098 0.512091 33.788 0.39027C33.6662 0.26845 33.501 0.200012 33.3287 0.200012H0.849594C0.677314 0.200012 0.512091 0.26845 0.39027 0.39027C0.26845 0.512091 0.200012 0.677314 0.200012 0.849594V33.3287C0.200012 33.501 0.26845 33.6662 0.39027 33.788C0.512091 33.9098 0.677314 33.9783 0.849594 33.9783H19.3822C20.1145 35.6103 21.2324 37.04 22.6396 38.1443C24.0469 39.2487 25.7013 39.9946 27.4607 40.318C29.22 40.6414 31.0316 40.5326 32.7395 40.0009C34.4475 39.4692 36.0007 38.5305 37.2656 37.2656C38.5305 36.0007 39.4692 34.4475 40.0009 32.7395C40.5326 31.0316 40.6414 29.22 40.318 27.4607C39.9946 25.7013 39.2487 24.0469 38.1443 22.6396C37.04 21.2324 35.6103 20.1145 33.9783 19.3822ZM13.1917 1.49918H20.9866V9.47604L17.4139 7.42986C17.3152 7.37285 17.2032 7.34283 17.0891 7.34283C16.9751 7.34283 16.8631 7.37285 16.7644 7.42986L13.1917 9.47604V1.49918ZM18.8755 32.6791H1.49918V1.49918H11.8925V10.5933C11.8932 10.7067 11.9235 10.8179 11.9805 10.9159C12.0375 11.0139 12.1191 11.0953 12.2173 11.152C12.316 11.209 12.428 11.239 12.5421 11.239C12.6561 11.239 12.7681 11.209 12.8669 11.152L17.0891 8.74201L21.3114 11.1585C21.4104 11.2146 21.5224 11.2437 21.6362 11.2429C21.7511 11.2452 21.864 11.2135 21.961 11.152C22.0592 11.0953 22.1408 11.0139 22.1978 10.9159C22.2548 10.8179 22.2851 10.7067 22.2858 10.5933V1.49918H32.6791V18.8755C30.7604 18.2847 28.717 18.2281 26.7686 18.7119C24.8202 19.1956 23.0405 20.2013 21.6209 21.6209C20.2013 23.0405 19.1956 24.8202 18.7119 26.7686C18.2281 28.717 18.2847 30.7604 18.8755 32.6791ZM29.4312 39.1749C27.5041 39.1749 25.6202 38.6035 24.0179 37.5328C22.4155 36.4622 21.1666 34.9404 20.4292 33.16C19.6917 31.3795 19.4987 29.4204 19.8747 27.5303C20.2507 25.6402 21.1787 23.904 22.5413 22.5413C23.904 21.1787 25.6402 20.2507 27.5303 19.8747C29.4204 19.4987 31.3795 19.6917 33.16 20.4292C34.9404 21.1666 36.4622 22.4155 37.5328 24.0179C38.6035 25.6202 39.1749 27.5041 39.1749 29.4312C39.1749 32.0154 38.1484 34.4938 36.3211 36.3211C34.4938 38.1484 32.0154 39.1749 29.4312 39.1749Z" fill="black"/>
<path d="M34.4784 26.8329H33.3806L33.8808 24.8387C34.0212 24.408 33.9848 23.9391 33.7795 23.5353C33.5743 23.1315 33.217 22.8257 32.7863 22.6853C32.3556 22.5449 31.8867 22.5813 31.4829 22.7866C31.0791 22.9919 30.7733 23.3492 30.6329 23.7799L29.8014 25.9884C29.7097 26.234 29.5458 26.4461 29.3314 26.5968C29.1169 26.7475 28.8618 26.8298 28.5997 26.8329H27.4824C27.4824 26.6606 27.414 26.4954 27.2922 26.3736C27.1704 26.2517 27.0051 26.1833 26.8329 26.1833H23.5849C23.4127 26.1833 23.2474 26.2517 23.1256 26.3736C23.0038 26.4954 22.9354 26.6606 22.9354 26.8329V33.3287C22.9354 33.501 23.0038 33.6662 23.1256 33.788C23.2474 33.9099 23.4127 33.9783 23.5849 33.9783H26.8329C27.0051 33.9783 27.1704 33.9099 27.2922 33.788C27.414 33.6662 27.4824 33.501 27.4824 33.3287H27.5994L28.4243 33.8679C28.53 33.9389 28.6543 33.9773 28.7816 33.9783H34.1147C34.5964 33.9812 35.0622 33.8056 35.4221 33.4853C35.7819 33.165 36.0104 32.7228 36.0634 32.2439L36.4272 28.996C36.4574 28.7227 36.4295 28.446 36.3452 28.1843C36.2609 27.9225 36.1222 27.6816 35.9381 27.4772C35.754 27.2729 35.5288 27.1099 35.2772 26.9988C35.0257 26.8878 34.7534 26.8312 34.4784 26.8329ZM26.1833 32.6791H24.2345V27.4825H26.1833V32.6791ZM34.7578 32.101C34.7401 32.2606 34.6639 32.408 34.544 32.5148C34.424 32.6216 34.2688 32.6801 34.1082 32.6791H28.9765L28.132 32.14C28.0263 32.0689 27.9021 32.0305 27.7747 32.0295H27.4824V28.1321H28.5997C29.1295 28.1325 29.6468 27.9709 30.0821 27.669C30.5175 27.3672 30.8502 26.9394 31.0357 26.4431L31.8606 24.2346C31.9011 24.138 31.9761 24.0599 32.0709 24.0155C32.1657 23.9711 32.2737 23.9635 32.3738 23.9942C32.473 24.0374 32.553 24.1154 32.5985 24.2136C32.644 24.3118 32.6519 24.4233 32.6206 24.5269L31.9191 27.3266C31.8948 27.4224 31.8926 27.5226 31.9129 27.6194C31.9332 27.7162 31.9753 27.8071 32.036 27.8852C32.0972 27.9626 32.1752 28.0251 32.2641 28.0679C32.353 28.1106 32.4505 28.1326 32.5492 28.1321H34.4979C34.5886 28.1323 34.6782 28.1515 34.7609 28.1884C34.8437 28.2253 34.9179 28.2791 34.9786 28.3464C35.0399 28.4146 35.0861 28.495 35.1141 28.5824C35.1421 28.6697 35.1512 28.762 35.141 28.8531L34.7578 32.101Z" fill="black"/>
</svg>
