<svg width="50" height="52" viewBox="0 0 50 52" fill="none" xmlns="http://www.w3.org/2000/svg">
<path d="M23.7361 11.697C23.7335 12.0956 23.4108 12.4155 23.0118 12.4181C21.2379 12.4155 19.4972 12.8954 17.9723 13.8018C16.4475 14.7107 15.1972 16.0131 14.3535 17.572C14.1629 17.9224 13.7232 18.0519 13.3725 17.8614C13.0218 17.671 12.8922 17.2343 13.0828 16.884C14.0511 15.0966 15.4844 13.6037 17.2328 12.5628C18.9812 11.5219 20.9787 10.9735 23.0118 10.9735C23.4108 10.9735 23.7361 11.2984 23.7361 11.697ZM12.9455 18.9635C12.76 18.9153 12.5618 18.9432 12.3966 19.0422C12.234 19.1412 12.1145 19.3012 12.0662 19.4865C11.8401 20.3903 11.7257 21.3196 11.7257 22.2539C11.7257 22.6525 12.0484 22.9749 12.4475 22.9749C12.8464 22.9749 13.1717 22.6525 13.1717 22.2539C13.1692 21.4389 13.2709 20.629 13.4691 19.8394C13.5174 19.6541 13.4869 19.4561 13.3903 19.291C13.2912 19.1285 13.1311 19.0092 12.9455 18.9635ZM23.012 5.86822C23.411 5.86822 23.7363 5.54578 23.7363 5.14716V0.922454C23.7363 0.52385 23.411 0.19886 23.012 0.19886C22.613 0.19886 22.2902 0.523837 22.2902 0.922454V5.14716C22.2902 5.33757 22.3665 5.52292 22.5012 5.65748C22.6384 5.79204 22.8214 5.86822 23.012 5.86822ZM35.632 33.839L35.6345 33.8415C35.3524 33.5572 34.8925 33.5572 34.6104 33.839C34.3283 34.1208 34.3283 34.5778 34.6104 34.8622L37.6041 37.853L37.6015 37.8505C37.8862 38.1272 38.336 38.1221 38.6155 37.8428C38.8951 37.5636 38.8976 37.1142 38.6232 36.8298L35.632 33.839ZM10.3888 10.6668H10.3913C10.526 10.8065 10.7115 10.8852 10.9046 10.8877C11.0978 10.8877 11.2833 10.8115 11.4205 10.677C11.5578 10.5399 11.634 10.352 11.634 10.159C11.6315 9.96609 11.5527 9.78075 11.4129 9.64619L8.4192 6.65536L8.42174 6.6579C8.13711 6.3837 7.68476 6.38624 7.40774 6.66552C7.12819 6.9448 7.12311 7.39418 7.39758 7.67854L10.3888 10.6668ZM5.88803 21.5308H1.65925C1.26027 21.5308 0.9375 21.8558 0.9375 22.2544C0.9375 22.653 1.26025 22.9755 1.65925 22.9755H5.88803C6.28702 22.9755 6.60979 22.653 6.60979 22.2544C6.60979 21.8558 6.28704 21.5308 5.88803 21.5308ZM10.3938 33.8397L7.40012 36.8305C7.26035 36.965 7.18156 37.1504 7.18156 37.3433C7.17902 37.5388 7.25526 37.7242 7.39249 37.8613C7.52973 37.9958 7.71778 38.072 7.91093 38.072C8.10407 38.0695 8.28958 37.9908 8.42427 37.8511L11.418 34.8603H11.4154C11.5552 34.7257 11.634 34.5404 11.6365 34.3474C11.6365 34.1545 11.5603 33.9691 11.4231 33.832C11.2858 33.6949 11.1003 33.6188 10.9072 33.6213C10.714 33.6213 10.5285 33.7 10.3938 33.8397ZM49.5738 38.8895C49.3222 39.0342 49.0122 39.0164 48.7809 38.8438L43.3628 34.7942C43.284 34.7358 43.2154 34.6622 43.1671 34.5784L37.3042 24.4255C36.7833 26.4312 35.6117 28.3913 34.3182 30.5721C32.74 33.0755 31.3982 35.7184 30.3079 38.4678C30.834 38.6379 31.1873 39.1278 31.1873 39.6763V42.7966C31.1873 43.4998 30.6155 44.0711 29.9115 44.0711H29.5024L29.5049 47.0213C29.5024 47.7245 28.9306 48.2958 28.2267 48.2958H27.4261V49.4256V49.4231C27.4261 50.8448 26.2749 51.9975 24.8518 52H21.1745C19.7514 51.9975 18.6001 50.8474 18.5976 49.4256V48.2958H17.7971C17.0957 48.2932 16.5239 47.7245 16.5239 47.0213V44.0711H16.1147C15.4083 44.0685 14.839 43.4998 14.839 42.7966V39.6763C14.839 39.1253 15.1922 38.6378 15.7158 38.4652C14.6255 35.7156 13.2837 33.0751 11.7081 30.5715C9.95203 27.6162 8.43227 25.0647 8.43227 22.2515C8.43481 17.4682 10.7881 12.9896 14.7297 10.2702C18.6688 7.55105 23.6954 6.93665 28.1759 8.62757L26.5342 5.78655C25.35 3.7377 25.7058 1.30544 27.3297 0.371131C28.2014 -0.0960241 29.2433 -0.123953 30.1404 0.297504C31.1061 0.731654 31.9066 1.46541 32.4251 2.39211L49.0604 31.1779C49.1087 31.2617 49.1418 31.3582 49.1519 31.4547L49.9321 38.1778C49.9677 38.4672 49.8254 38.7465 49.5738 38.8887L49.5738 38.8895ZM27.7871 5.0691L29.3958 7.85428L32.7783 5.90442L31.1696 3.11923C30.8062 2.46675 30.2471 1.94626 29.5686 1.63142C29.0908 1.39023 28.5292 1.39023 28.0515 1.63142C27.1366 2.15444 27.0145 3.7311 27.7871 5.0691ZM25.9803 48.2963H20.0437V49.4261V49.4235C20.0463 50.0481 20.5494 50.5534 21.1746 50.5534H24.8519C25.4745 50.5534 25.9803 50.0481 25.9803 49.4235V48.2963ZM28.0565 44.0716H17.9673V46.8516H28.0591L28.0565 44.0716ZM29.7414 39.8469H16.2822V42.6269H29.7414V39.8469ZM36.1456 22.4222L29.4316 10.8043C25.3655 8.52946 20.3944 8.57768 16.3718 10.9312C12.3489 13.2873 9.87616 17.5959 9.87616 22.2547C9.87616 24.6667 11.2332 26.9466 12.9512 29.8332C14.6615 32.5397 16.0948 35.4111 17.2333 38.4022H22.3541V27.5941C19.5714 27.259 17.4773 24.9029 17.4722 22.1025C17.4722 21.7039 17.7975 21.3815 18.1965 21.3815C18.5955 21.3815 18.9183 21.7039 18.9183 22.1025C18.9183 24.3622 20.7531 26.1927 23.0124 26.1927C25.2742 26.1927 27.109 24.3622 27.109 22.1025C27.109 21.7039 27.4318 21.3815 27.8308 21.3815C28.2298 21.3815 28.5525 21.7039 28.5525 22.1025C28.55 24.8547 26.5271 27.1879 23.8002 27.5814V38.4019H28.794C29.9325 35.4111 31.3658 32.5422 33.0761 29.8355C34.7534 27.0148 36.0846 24.773 36.1456 22.4222ZM44.0619 33.2303L47.4444 31.2805L33.5024 7.1535L30.1199 9.10336L44.0619 33.2303ZM48.3033 36.6832L47.8434 32.7174L45.1114 34.2941L48.3033 36.6832Z" fill="white"/>
</svg>
