<svg width="30" height="34" viewBox="0 0 30 34" fill="none" xmlns="http://www.w3.org/2000/svg">
<path d="M14.7111 0.000148246C8.38241 0.000148246 3.27131 5.11906 3.27131 11.4556V14.4825H2.4598C1.1077 14.4825 0 15.5928 0 16.9463V21.041C0 22.3945 1.10637 23.5035 2.4598 23.5035H7.07515V23.5022C7.36868 23.5035 7.60775 23.2671 7.60908 22.9736V15.0152C7.60908 14.8744 7.5533 14.7376 7.45368 14.638C7.35274 14.5384 7.21727 14.4826 7.07514 14.4826H4.33378V11.4557C4.33378 5.68868 8.95321 1.06278 14.711 1.06278C20.4688 1.06278 25.0883 5.68868 25.0883 11.4557V14.4826H22.3469H22.3482C22.0547 14.4839 21.8169 14.723 21.8183 15.0152V22.9735C21.8196 23.2657 22.056 23.5008 22.3482 23.5022H25.0896V24.0786C25.0896 27.334 22.4678 29.9612 19.2189 29.9612H18.1776C17.9213 28.2784 16.4629 26.9807 14.7125 26.9807C12.7813 26.9807 11.2063 28.5586 11.2063 30.4897C11.2063 32.4222 12.7815 34 14.7125 34C16.4617 34 17.9201 32.7037 18.1776 31.0235H19.2189C23.0441 31.0235 26.1521 27.9076 26.1521 24.0784V23.502H26.9676C28.3197 23.502 29.4274 22.393 29.4274 21.0395L29.4261 16.9461C29.4261 15.5927 28.3197 14.4823 26.9663 14.4823H26.1521V11.4554C26.1521 5.11857 21.0398 0.000148246 14.7111 0.000148246ZM2.46004 15.5466H4.23716V22.4411H2.46004C1.68304 22.4411 1.06278 21.8208 1.06278 21.0412L1.06411 16.9464C1.06411 16.1667 1.68304 15.5465 2.46137 15.5465L2.46004 15.5466ZM5.29838 15.5466H6.54555V22.4411H5.29838V15.5466ZM22.8809 15.5466H24.128V22.4411H22.8809V15.5466ZM25.1866 15.5466H26.9677C27.7447 15.5466 28.3649 16.1669 28.3649 16.9465V21.0413C28.3649 21.821 27.746 22.4412 26.9677 22.4412L25.1866 22.4399V15.5466ZM14.7111 28.0449C16.0671 28.0449 17.1549 29.1326 17.1549 30.4914C17.1549 31.8501 16.0671 32.9392 14.7111 32.9392C13.355 32.9392 12.2672 31.8501 12.2672 30.4914C12.2672 29.1326 13.355 28.0449 14.7111 28.0449Z" fill="black"/>
</svg>
