<svg width="42" height="49" viewBox="0 0 42 49" fill="none" xmlns="http://www.w3.org/2000/svg">
<path d="M16.5174 39.4224C16.0403 39.4224 15.5673 39.3632 15.1024 39.2124C13.7424 38.7699 12.7983 37.6994 11.8869 36.6636C11.3486 36.0519 10.8389 35.4749 10.2802 35.0671C9.71133 34.6532 8.99564 34.3412 8.23914 34.013C6.98106 33.4665 5.68024 32.8997 4.85238 31.7599C4.03068 30.6303 3.89204 29.2254 3.75946 27.8655C3.6779 27.0397 3.60246 26.2588 3.38021 25.5777C3.17223 24.9375 2.78484 24.285 2.37702 23.5958C1.66947 22.403 0.9375 21.1695 0.9375 19.7116C0.9375 18.2537 1.66947 17.0201 2.37702 15.8273C2.78685 15.1361 3.1722 14.4857 3.38021 13.8454C3.60042 13.1644 3.6779 12.3834 3.75946 11.5577C3.89199 10.1976 4.03064 8.79075 4.85238 7.66323C5.68222 6.52343 6.9831 5.95865 8.23914 5.41015C8.99559 5.08187 9.70924 4.76989 10.2802 4.35601C10.8389 3.95026 11.3466 3.3712 11.8869 2.75949C12.7983 1.72367 13.7424 0.653196 15.1024 0.210766C16.4053 -0.213343 17.7735 0.0884296 19.0967 0.377961C19.9205 0.559433 20.6994 0.730704 21.4375 0.730704C22.1756 0.730704 22.9545 0.559433 23.7803 0.377961C25.1036 0.0863886 26.4717 -0.213337 27.7746 0.210766C29.1347 0.653227 30.0787 1.72367 30.9901 2.75949C31.5284 3.3712 32.0382 3.94819 32.5969 4.35601C33.1657 4.76993 33.8814 5.08188 34.6379 5.41015C35.896 5.95661 37.1968 6.52343 38.0247 7.66323C38.8464 8.79284 38.985 10.1977 39.1176 11.5577C39.1991 12.3834 39.2746 13.1644 39.4968 13.8454C39.7048 14.4857 40.0922 15.1381 40.5 15.8273C41.2055 17.0201 41.9375 18.2537 41.9375 19.7116C41.9375 21.1695 41.2055 22.403 40.498 23.5958C40.0881 24.287 39.7028 24.9375 39.4948 25.5777C39.2746 26.2588 39.1971 27.0397 39.1155 27.8655C38.983 29.2255 38.8444 30.6324 38.0226 31.7599C37.1928 32.8997 35.8919 33.4645 34.6359 34.013C33.8794 34.3412 33.1658 34.6532 32.5969 35.0671C32.0382 35.4729 31.5305 36.0519 30.9902 36.6636C30.0788 37.6994 29.1347 38.7699 27.7747 39.2124C26.4718 39.6344 25.1036 39.3347 23.7804 39.0452C22.9546 38.8637 22.1757 38.6924 21.4376 38.6924C20.6994 38.6924 19.9206 38.8637 19.0948 39.0452C18.2445 39.2307 17.3758 39.4224 16.5174 39.4224ZM16.5195 1.51986C16.1851 1.51986 15.867 1.5586 15.5713 1.65443C14.6069 1.96843 13.8382 2.83906 13.0267 3.76072C12.4578 4.40709 11.8685 5.07585 11.1753 5.58154C10.4718 6.09333 9.64604 6.45221 8.84678 6.80084C7.72536 7.28815 6.6671 7.74896 6.08191 8.55437C5.50282 9.34956 5.3907 10.4934 5.27242 11.7046C5.18678 12.5753 5.09911 13.4765 4.82588 14.3145C4.56693 15.1159 4.11834 15.8703 3.68405 16.6023C3.05199 17.6646 2.45656 18.6698 2.45656 19.7117C2.45656 20.7536 3.05193 21.7588 3.68405 22.8211C4.11835 23.5531 4.56693 24.3096 4.82588 25.1089C5.09706 25.9469 5.18678 26.8481 5.27242 27.7188C5.39068 28.9299 5.50283 30.0738 6.08191 30.869C6.66913 31.6744 7.72734 32.1352 8.84678 32.6225C9.644 32.9692 10.4698 33.3281 11.1753 33.8418C11.8685 34.3475 12.4578 35.0163 13.0267 35.6627C13.8382 36.5843 14.6069 37.457 15.5713 37.7689C16.4828 38.0646 17.594 37.8199 18.7705 37.563C19.6371 37.3713 20.5342 37.1736 21.4375 37.1736C22.3408 37.1736 23.2379 37.3714 24.1045 37.561C25.281 37.8199 26.3922 38.0646 27.3037 37.7669C28.2681 37.4529 29.0368 36.5823 29.8483 35.6606C30.4172 35.0143 31.0065 34.3455 31.6997 33.8398C32.4032 33.328 33.229 32.9691 34.0282 32.6205C35.1496 32.1332 36.2079 31.6724 36.7931 30.867C37.3722 30.0718 37.4843 28.9279 37.6026 27.7167C37.6882 26.8461 37.7759 25.9449 38.0491 25.1068C38.3081 24.3055 38.7567 23.5511 39.191 22.8191C39.823 21.7568 40.4184 20.7536 40.4184 19.7117C40.4184 18.6698 39.8231 17.6645 39.191 16.6023C38.7567 15.8703 38.3081 15.1138 38.0491 14.3145C37.7779 13.4765 37.6882 12.5753 37.6026 11.7046C37.4843 10.4935 37.3722 9.34961 36.7931 8.55437C36.2059 7.74896 35.1477 7.28816 34.0282 6.80084C33.231 6.45421 32.4052 6.09533 31.6997 5.58154C31.0065 5.07588 30.4172 4.40709 29.8483 3.76072C29.0368 2.83912 28.2681 1.96642 27.3037 1.65443C26.3922 1.35878 25.281 1.60346 24.1045 1.86037C23.2379 2.05203 22.3408 2.24778 21.4375 2.24778C20.5342 2.24778 19.6371 2.04999 18.7705 1.86037C17.9753 1.68705 17.2127 1.51986 16.5195 1.51986Z" fill="white"/>
<path d="M21.4382 34.1375C13.4843 34.1375 7.01224 27.666 7.01224 19.7116C7.01224 11.7577 13.4837 5.28564 21.4382 5.28564C29.3926 5.28564 35.8641 11.7571 35.8641 19.7116C35.8641 27.6655 29.3926 34.1375 21.4382 34.1375ZM21.4382 6.80513C14.322 6.80513 8.5312 12.596 8.5312 19.7121C8.5312 26.8283 14.322 32.6191 21.4382 32.6191C28.5543 32.6191 34.3452 26.8283 34.3452 19.7121C34.3452 12.5939 28.5543 6.80513 21.4382 6.80513Z" fill="white"/>
<path d="M19.2913 26.33C19.0976 26.33 18.9018 26.2566 18.755 26.1077L13.9226 21.2754C13.4924 20.8451 13.2559 20.2722 13.2559 19.6646C13.2559 19.0569 13.4924 18.484 13.9226 18.0538C14.8116 17.1648 16.2553 17.1648 17.1443 18.0538L19.2913 20.2009L25.7346 13.7575C26.1649 13.3273 26.7378 13.0908 27.3454 13.0908C27.953 13.0908 28.526 13.3273 28.9562 13.7575C29.8431 14.6465 29.8431 16.0902 28.9562 16.9792L19.8299 26.1054C19.679 26.2563 19.4849 26.33 19.2913 26.33ZM15.5334 18.9059C15.3316 18.9059 15.1399 18.9854 14.9972 19.1281C14.8545 19.2709 14.7749 19.4625 14.7749 19.6643C14.7749 19.8662 14.8545 20.0579 14.9972 20.2006L19.2913 24.4947L27.8815 15.9045C28.1772 15.6088 28.1772 15.1276 27.8815 14.8299C27.7388 14.6872 27.5471 14.6077 27.3453 14.6077C27.1434 14.6077 26.9518 14.6872 26.8091 14.8299L19.8297 21.8093C19.534 22.105 19.0528 22.105 18.7551 21.8093L16.0718 19.126C15.9271 18.9853 15.7353 18.9059 15.5334 18.9059Z" fill="white"/>
<path d="M31.1007 48.5325C30.8988 48.5325 30.7031 48.453 30.5583 48.3062L21.4378 39.0165L12.3151 48.3062C12.1255 48.4999 11.8441 48.5774 11.5811 48.508C11.3181 48.4387 11.1121 48.2348 11.0408 47.9738L9.54414 42.4868L4.05709 40.9902C3.7961 40.9188 3.5922 40.7149 3.52289 40.4519C3.45357 40.1909 3.52901 39.9115 3.72068 39.7199L9.78869 33.6519C10.0843 33.3563 10.5656 33.3563 10.8632 33.6519C11.1589 33.9476 11.1589 34.4288 10.8632 34.7265L5.7209 39.8688L10.3637 41.135C10.6226 41.2064 10.8265 41.4082 10.8958 41.6672L12.158 46.2977L20.8948 37.3995C21.0376 37.2548 21.2333 37.1732 21.4372 37.1732C21.6412 37.1732 21.8369 37.2548 21.9796 37.3995L30.7165 46.2977L31.9787 41.6672C32.05 41.4082 32.2519 41.2043 32.5108 41.135L37.1536 39.8688L32.0112 34.7265C31.7156 34.4308 31.7156 33.9496 32.0112 33.6519C32.3069 33.3563 32.7881 33.3563 33.0858 33.6519L39.1538 39.7199C39.3455 39.9116 39.4209 40.1909 39.3516 40.4519C39.2823 40.7129 39.0784 40.9188 38.8174 40.9902L33.3303 42.4868L31.8337 47.9738C31.7624 48.2369 31.5564 48.4408 31.2934 48.508C31.2281 48.5243 31.1649 48.5325 31.0997 48.5325L31.1007 48.5325Z" fill="white"/>
</svg>
