<svg width="47" height="45" viewBox="0 0 47 45" fill="none" xmlns="http://www.w3.org/2000/svg">
<path fill-rule="evenodd" clip-rule="evenodd" d="M26.6134 17.0688H32.8203C33.2489 17.0688 33.5961 16.7216 33.5961 16.293C33.5961 15.8643 33.2489 15.5171 32.8203 15.5171H26.6134C26.1847 15.5171 25.8375 15.8643 25.8375 16.293C25.8375 16.7216 26.1847 17.0688 26.6134 17.0688Z" fill="white"/>
<path fill-rule="evenodd" clip-rule="evenodd" d="M14.6183 5.46594L19.4034 0.682759C19.8399 0.244398 20.4314 0 21.0483 0H25.9711C26.5879 0 27.1795 0.244398 27.6159 0.682759L32.4011 5.46594L37.6749 6.05172C38.8135 6.1778 39.8396 6.80236 40.4739 7.75475C41.8006 9.74483 44.4308 13.69 45.6916 15.5794C46.3065 16.5027 46.1843 17.7324 45.4007 18.5161L41.2285 22.6882C40.7824 23.1363 40.1733 23.3807 39.5429 23.371C38.9106 23.3594 38.3113 23.0936 37.8806 22.632L36.6994 21.3654V42.6724C36.6994 43.2892 36.455 43.8828 36.0166 44.3172C35.5822 44.7556 34.9886 45 34.3718 45H12.6477C12.0309 45 11.4373 44.7556 11.0028 44.3172C10.5645 43.8828 10.3201 43.2892 10.3201 42.6724V21.3654L9.13884 22.632C8.70824 23.0936 8.10889 23.3593 7.47653 23.371C6.84616 23.3807 6.23709 23.1363 5.79099 22.6882C4.59033 21.4876 2.72051 19.6197 1.61881 18.5161C0.835205 17.7325 0.713003 16.5027 1.32786 15.5794C2.58866 13.6902 5.21879 9.74493 6.54563 7.75475C7.17987 6.80236 8.206 6.1778 9.34454 6.05172L14.6183 5.46594ZM35.1477 41.8965V42.6723C35.1477 42.8779 35.0663 43.0758 34.9208 43.2213C34.7753 43.3667 34.5775 43.4482 34.3719 43.4482H12.6477C12.4421 43.4482 12.2443 43.3667 12.0988 43.2213C11.9533 43.0758 11.8719 42.8779 11.8719 42.6723V41.8965H35.1477ZM14.6903 7.01965L9.51525 7.59377C8.83249 7.66941 8.21761 8.04377 7.83551 8.61597L4.02602 14.3323L9.57945 19.8857L10.5299 18.8674C10.7471 18.6346 11.0846 18.559 11.3814 18.6754C11.6782 18.7917 11.8721 19.0788 11.8721 19.3969V40.3454H35.148V19.3969C35.148 19.0788 35.3419 18.7917 35.6387 18.6754C35.9355 18.559 36.273 18.6346 36.4902 18.8674L37.4406 19.8857L42.9941 14.3323L39.1846 8.61597C38.8025 8.04379 38.1876 7.66944 37.5049 7.59377L32.3298 7.01965L27.4826 11.8649C27.0481 12.3013 26.4546 12.5477 25.8378 12.5477C25.221 12.5477 24.6274 12.3013 24.1929 11.8649L23.5102 11.1841L22.8274 11.8649C22.3929 12.3013 21.7994 12.5477 21.1826 12.5477C20.5658 12.5477 19.9723 12.3013 19.5378 11.8649L14.6903 7.01965ZM3.14747 15.6492L8.52016 21.0199L8.00419 21.5727C7.86066 21.726 7.66087 21.8152 7.44944 21.8191C7.23996 21.821 7.0363 21.7395 6.88889 21.5921L2.71671 17.42C2.45486 17.1581 2.41412 16.7488 2.61973 16.4404L3.14747 15.6492ZM43.8727 15.6492L44.4002 16.4406C44.6058 16.749 44.5651 17.1583 44.3033 17.4202L40.1311 21.5924C39.9837 21.7398 39.78 21.8212 39.5705 21.8193C39.3591 21.8154 39.1593 21.7262 39.0158 21.573L38.4998 21.0201L43.8727 15.6492ZM17.3032 4.97733L22.4122 10.0864L21.7314 10.7691C21.5859 10.9126 21.388 10.9961 21.1824 10.9961C20.9768 10.9961 20.779 10.9126 20.6335 10.7691L16.0734 6.20705L17.3032 4.97733ZM29.717 4.97733L30.9467 6.20709L26.3866 10.7692C26.2411 10.9127 26.0433 10.9961 25.8376 10.9961C25.632 10.9961 25.4342 10.9127 25.2887 10.7692L24.6079 10.0864L29.717 4.97733ZM19.1767 4.65535L23.5099 8.98856L27.8431 4.65535H19.1767ZM26.5202 1.77883L27.843 3.10363H19.1767L20.4996 1.77883C20.647 1.63335 20.8429 1.55189 21.0485 1.55189H25.9714C26.177 1.55189 26.3727 1.63335 26.5202 1.77883Z" fill="white"/>
</svg>
