<svg width="34" height="34" viewBox="0 0 34 34" fill="none" xmlns="http://www.w3.org/2000/svg">
<path fill-rule="evenodd" clip-rule="evenodd" d="M18.7875 4.75608L18.8657 5.24453C18.9409 5.72115 20.5272 6.30698 20.8578 6.06941L21.2591 5.77871C22.4957 4.88447 24.7933 7.18202 23.8976 8.41715L23.6084 8.81852C23.3442 9.18448 23.995 10.7398 24.4332 10.8106L24.9217 10.8888C26.4194 11.1294 26.4194 14.3802 24.9217 14.6207L24.4332 14.6989C23.9566 14.7742 23.3708 16.3605 23.6084 16.691L23.8991 17.0924C24.7948 18.3289 22.4957 20.6265 21.2606 19.7308L20.8592 19.4401C20.4933 19.176 18.938 19.8252 18.8671 20.265L18.7889 20.7534C18.5514 22.2335 15.2961 22.2379 15.0585 20.7534L14.9803 20.265C14.9051 19.7884 13.3188 19.2025 12.9882 19.4401L12.5883 19.7308C11.3518 20.6251 9.05418 18.3275 9.94989 17.0924L10.2406 16.691C10.5047 16.325 9.85399 14.7697 9.41571 14.6989L8.92432 14.6207C7.42657 14.3802 7.42657 11.1293 8.92432 10.8888L9.41277 10.8106C9.88939 10.7354 10.4767 9.14907 10.2376 8.81852L9.94695 8.41715C9.05271 7.18058 11.3503 4.883 12.5869 5.77871L12.9868 6.06941C13.3527 6.33355 14.908 5.68281 14.9789 5.24453L15.0571 4.75608C15.2932 3.27748 18.5499 3.27011 18.7875 4.75608ZM28.4294 3.72902C28.2583 3.82789 28.0414 3.76886 27.9425 3.59769C27.8451 3.42799 27.9041 3.20961 28.0738 3.11219L30.1589 1.90807C30.33 1.81068 30.5469 1.86823 30.6458 2.0394C30.7432 2.21057 30.6842 2.42748 30.5145 2.5249L28.4294 3.72902ZM31.0915 13.1111C30.8996 13.1052 30.7462 12.9473 30.7462 12.754C30.7462 12.5607 30.8996 12.4028 31.0915 12.3969H33.4997C33.693 12.4028 33.845 12.5607 33.845 12.754C33.845 12.9473 33.693 13.1052 33.4997 13.1111H31.0915ZM5.77121 3.11213C5.94091 3.20952 5.99993 3.42792 5.90254 3.59763C5.80367 3.76881 5.58676 3.82783 5.41557 3.72897L3.33051 2.52485C3.16081 2.42746 3.10179 2.21054 3.19918 2.03935C3.29805 1.86818 3.51496 1.81063 3.68615 1.90802L5.77121 3.11213ZM2.75353 12.3968C2.94536 12.4027 3.09883 12.5606 3.09883 12.7539C3.09883 12.9472 2.94536 13.1051 2.75353 13.111H0.345297C0.151989 13.1051 0 12.9472 0 12.7539C0 12.5606 0.151989 12.4027 0.345297 12.3968H2.75353ZM10.4225 27.3966H23.4243C23.3653 26.92 22.9624 26.5614 22.4828 26.5599H11.3623C10.8827 26.5614 10.4784 26.92 10.4208 27.3966H10.4225ZM23.4319 28.1123L10.4153 28.1108V29.2677L23.4303 29.2691V28.1108L23.4319 28.1123ZM23.426 29.9848L10.4211 29.9833C10.4787 30.46 10.883 30.8185 11.3626 30.8215H22.4831C22.9627 30.8186 23.367 30.46 23.4246 29.9833L23.426 29.9848ZM11.7199 25.8442H22.1261C22.0921 24.5707 22.7119 23.3695 23.7685 22.6583C26.6017 20.7001 28.461 17.6204 28.8743 14.2013C29.2875 10.7808 28.2176 7.34832 25.9319 4.77047C23.6476 2.19255 20.3674 0.717083 16.923 0.717083C13.4786 0.717083 10.1985 2.1927 7.91413 4.77047C5.62837 7.3484 4.55855 10.7807 4.9717 14.2013C5.3849 17.6204 7.24417 20.6999 10.0775 22.6583C11.1341 23.3695 11.7538 24.5707 11.7199 25.8442ZM22.8404 25.8825C22.7917 24.8304 23.2979 23.8285 24.1729 23.2441C27.1758 21.1693 29.1443 17.9082 29.5825 14.2855C30.0222 10.6628 28.8875 7.02524 26.4674 4.29553C24.0459 1.56412 20.5724 0 16.9229 0C13.2733 0 9.80015 1.56416 7.37831 4.29553C4.95829 7.02547 3.8235 10.6627 4.26325 14.2855C4.70153 17.9081 6.67001 21.1694 9.6728 23.2441C10.5493 23.8285 11.054 24.8289 11.0053 25.8825C10.2439 26.0522 9.70083 26.7266 9.69936 27.5057V29.8726C9.70084 30.3153 9.87791 30.7389 10.1908 31.0502C10.5051 31.3616 10.9286 31.5372 11.3713 31.5357C12.0441 33.0305 13.5286 33.9956 15.1697 34H18.6757C20.3167 33.9956 21.8026 33.032 22.4757 31.5357C22.9184 31.5372 23.3419 31.3631 23.6562 31.0517C23.969 30.7389 24.1461 30.3154 24.1461 29.8742V27.5072C24.1446 26.7266 23.6031 26.0523 22.8416 25.8826L22.8404 25.8825ZM21.6747 31.5357C21.0623 32.6159 19.9172 33.2829 18.6762 33.2844H15.1701C13.9291 33.2829 12.784 32.6159 12.1716 31.5357H21.6747ZM16.9232 8.76083C11.6731 8.76083 11.6731 16.7471 16.9232 16.7471C22.1733 16.7471 22.1733 8.76083 16.9232 8.76083ZM19.2414 10.4357C18.3029 9.49864 16.8937 9.21827 15.6689 9.72591C14.4441 10.2335 13.6458 11.4288 13.6458 12.7539C13.6458 14.0805 14.4441 15.2758 15.6689 15.7819C16.8937 16.2895 18.3029 16.0091 19.2414 15.0721C20.5208 13.7913 20.5208 11.7164 19.2414 10.4357ZM18.1627 5.35667L18.0845 4.86822C17.9753 4.18795 15.8637 4.23075 15.7619 4.86822L15.6837 5.35667C15.5287 6.32174 13.3861 7.23811 12.5686 6.64786L12.1672 6.35716C11.5976 5.94548 10.1131 7.42993 10.5248 7.99956L10.8155 8.40093C11.3866 9.1889 10.5248 11.3551 9.52433 11.516L9.03589 11.5942C8.35119 11.7034 8.35119 13.8077 9.03589 13.9168L9.52433 13.995C10.4894 14.15 11.4073 16.2926 10.8155 17.1101L10.5248 17.5115C10.1131 18.0811 11.5976 19.5656 12.1672 19.1539L12.5686 18.8632C13.358 18.2921 15.5228 19.1539 15.6837 20.1544L15.7619 20.6428C15.8711 21.3231 17.9842 21.2729 18.0845 20.6428L18.1627 20.1544C18.3177 19.1893 20.4603 18.2715 21.2778 18.8632L21.6777 19.1539C22.0023 19.3885 22.5985 18.9768 22.87 18.7053C23.1415 18.4338 23.5547 17.8361 23.32 17.513L23.0293 17.1116C22.4583 16.3222 23.32 14.1574 24.3205 13.9966L24.809 13.9183C25.4937 13.8092 25.4937 11.7049 24.809 11.5957L24.3205 11.5175C23.3555 11.3626 22.4376 9.21996 23.0293 8.40244L23.32 8.00107C23.7317 7.43148 22.2473 5.94699 21.6776 6.35867L21.2777 6.64937C20.4883 7.21749 18.3221 6.35568 18.1627 5.35667Z" fill="black"/>
</svg>
