<svg width="16" height="17" viewBox="0 0 16 17" fill="none" xmlns="http://www.w3.org/2000/svg">
<path d="M8 0.189575C3.58884 0.189575 0 3.77841 0 8.18957C0 12.6007 3.58884 16.1896 8 16.1896C12.4113 16.1896 16 12.6007 16 8.18957C16 3.77841 12.4113 0.189575 8 0.189575ZM12.3868 6.12841L7.51575 11.3305C7.37021 11.4854 7.16734 11.5938 6.95476 11.5938C6.95375 11.5938 6.95262 11.5938 6.95161 11.5938C6.74017 11.5938 6.53793 11.488 6.39189 11.3352L3.61769 8.42229C3.32233 8.11306 3.33342 7.61818 3.64251 7.32282C3.95174 7.0277 4.44191 7.03624 4.73715 7.34521L6.94695 9.65664L11.2583 5.06858C11.5512 4.75734 12.0408 4.74103 12.3528 5.03437C12.6643 5.32722 12.6794 5.8168 12.3868 6.12841Z" fill="black"/>
</svg>
