<svg width="41" height="34" viewBox="0 0 41 34" fill="none" xmlns="http://www.w3.org/2000/svg">
<path d="M30.221 34H10.4782C10.0398 34 9.68439 33.6449 9.68439 33.2062V12.8223L6.62069 16.7752C6.35207 17.1225 5.85398 17.1837 5.50823 16.9178L0.808793 13.2905C0.641731 13.1611 0.533199 12.9719 0.506454 12.7626C0.479708 12.5533 0.537075 12.3424 0.666151 12.1757L9.82083 0.353504C9.96386 0.141092 10.205 0 10.4782 0H14.6699C15.0071 0 15.3075 0.213188 15.4191 0.531032C16.3843 3.28387 18.0111 4.9196 19.8825 5.01883C21.8625 5.12814 23.8959 3.41876 25.3045 0.452734C25.4363 0.175977 25.715 0 26.0216 0H30.221C30.5078 0 30.7594 0.151945 30.8989 0.380637L40.0257 12.1757C40.1544 12.3424 40.2118 12.5533 40.185 12.7626C40.1587 12.9711 40.0497 13.1611 39.8834 13.2898L35.1918 16.917C34.8452 17.1837 34.3471 17.1225 34.0785 16.7752L31.0148 12.8223V33.2062C31.0148 33.6449 30.6594 34 30.221 34ZM11.2721 32.4123H29.4272V10.502C29.4272 10.1625 29.6431 9.86091 29.964 9.75083C30.2846 9.64152 30.6404 9.74773 30.8485 10.016L34.8479 15.1759L38.2838 12.5192L29.8256 1.58767H26.5146C24.8029 4.92038 22.3737 6.73907 19.798 6.60495C17.3878 6.47626 15.3393 4.6568 14.1191 1.58767H10.8736L2.40809 12.5192L5.85088 15.1767L9.85068 10.016C10.0588 9.74696 10.4131 9.64075 10.7352 9.75083C11.0562 9.86091 11.2721 10.1625 11.2721 10.502V32.4123Z" fill="black"/>
</svg>
